<svg xmlns="http://www.w3.org/2000/svg" xmlns:xlink="http://www.w3.org/1999/xlink" width="1472" zoomAndPan="magnify" viewBox="0 0 1104 487.499991" height="650" preserveAspectRatio="xMidYMid meet" version="1.0"><defs><g/><clipPath id="3944cdd9a3"><path d="M 0.566406 0 L 1103.433594 0 L 1103.433594 487 L 0.566406 487 Z M 0.566406 0 " clip-rule="nonzero"/></clipPath><clipPath id="174f988b7b"><path d="M 848 128 L 1103.433594 128 L 1103.433594 456 L 848 456 Z M 848 128 " clip-rule="nonzero"/></clipPath></defs><g clip-path="url(#3944cdd9a3)"><path fill="#ffffff" d="M 0.566406 0 L 1103.433594 0 L 1103.433594 487 L 0.566406 487 Z M 0.566406 0 " fill-opacity="1" fill-rule="nonzero"/><path fill="#ffffff" d="M 0.566406 0 L 1103.433594 0 L 1103.433594 487 L 0.566406 487 Z M 0.566406 0 " fill-opacity="1" fill-rule="nonzero"/></g><g fill="#161a2e" fill-opacity="1"><g transform="translate(-26.488362, 323.56745)"><g><path d="M 203.59375 -181.71875 C 203.59375 -193.28125 200.320312 -202.140625 193.78125 -208.296875 C 187.25 -214.453125 179.582031 -217.53125 170.78125 -217.53125 L 116.875 -217.53125 L 116.875 -145.15625 L 170.78125 -145.15625 C 179.582031 -145.15625 187.25 -148.359375 193.78125 -154.765625 C 200.320312 -161.171875 203.59375 -170.15625 203.59375 -181.71875 Z M 208.109375 -47.5 C 208.109375 -59.5625 204.835938 -69.050781 198.296875 -75.96875 C 191.765625 -82.882812 183.726562 -86.34375 174.1875 -86.34375 L 116.875 -86.34375 L 116.875 -8.671875 L 174.1875 -8.671875 C 183.726562 -8.671875 191.765625 -12.125 198.296875 -19.03125 C 204.835938 -25.945312 208.109375 -35.4375 208.109375 -47.5 Z M 28.65625 4.90625 L 28.65625 -276.359375 L 175.6875 -276.359375 C 211.882812 -276.359375 240.285156 -267.8125 260.890625 -250.71875 C 281.003906 -233.875 291.0625 -211.628906 291.0625 -183.984375 C 291.0625 -168.148438 287.351562 -155.078125 279.9375 -144.765625 C 272.519531 -134.460938 260.894531 -125.289062 245.0625 -117.25 C 261.894531 -109.957031 274.519531 -99.773438 282.9375 -86.703125 C 291.363281 -73.640625 295.578125 -59.441406 295.578125 -44.109375 C 295.578125 -15.453125 285.273438 7.414062 264.671875 24.5 C 244.054688 41.59375 216.15625 50.140625 180.96875 50.140625 L 80.6875 50.140625 Z M 28.65625 4.90625 "/></g></g></g><g fill="#161a2e" fill-opacity="1"><g transform="translate(302.272496, 323.56745)"><g><path d="M 21.859375 2.265625 L 21.859375 -146.28125 C 21.859375 -154.070312 21.671875 -161.863281 21.296875 -169.65625 C 20.921875 -177.445312 20.234375 -184.988281 19.234375 -192.28125 L 101.421875 -192.28125 C 102.171875 -189.507812 103.046875 -186.425781 104.046875 -183.03125 C 105.054688 -179.644531 105.1875 -176.945312 104.4375 -174.9375 C 110.21875 -181.46875 118.070312 -186.429688 128 -189.828125 C 137.925781 -193.222656 147.285156 -194.921875 156.078125 -194.921875 C 167.390625 -194.921875 178.507812 -193.222656 189.4375 -189.828125 C 200.375 -186.429688 209.867188 -179.582031 217.921875 -169.28125 L 190.765625 -111.21875 C 184.484375 -121.519531 177.128906 -128.554688 168.703125 -132.328125 C 160.285156 -136.097656 152.8125 -137.984375 146.28125 -137.984375 C 134.96875 -137.984375 125.914062 -132.832031 119.125 -122.53125 C 112.34375 -112.226562 108.953125 -99.910156 108.953125 -85.578125 L 108.953125 47.5 L 73.890625 47.5 Z M 21.859375 2.265625 "/></g></g></g><g fill="#161a2e" fill-opacity="1"><g transform="translate(534.516493, 323.56745)"><g><path d="M 109.328125 -219.796875 L 21.109375 -219.796875 L 21.109375 -288.796875 L 109.328125 -288.796875 Z M 21.859375 4.90625 L 21.859375 -189.640625 L 108.953125 -189.640625 L 108.953125 50.140625 L 73.890625 50.140625 Z M 21.859375 4.90625 "/></g></g></g><g fill="#161a2e" fill-opacity="1"><g transform="translate(681.177123, 323.56745)"><g><path d="M 30.15625 4.90625 L 30.15625 -135.34375 L 4.53125 -135.34375 L 4.53125 -182.859375 L 30.15625 -182.859375 L 30.15625 -211.125 C 30.15625 -231.488281 37.945312 -247.953125 53.53125 -260.515625 C 69.625 -273.335938 89.859375 -279.75 114.234375 -279.75 L 162.109375 -279.75 L 162.109375 -227.71875 L 132.703125 -227.71875 C 122.398438 -227.71875 117.25 -220.929688 117.25 -207.359375 L 117.25 -182.859375 L 162.109375 -182.859375 L 162.109375 -135.34375 L 117.25 -135.34375 L 117.25 50.140625 L 81.4375 50.140625 Z M 30.15625 4.90625 "/></g></g></g><g clip-path="url(#174f988b7b)"><g fill="#161a2e" fill-opacity="1"><g transform="translate(859.507367, 323.56745)"><g><path d="M 118.390625 -72.765625 C 118.890625 -75.773438 119.578125 -79.796875 120.453125 -84.828125 C 121.335938 -89.859375 122.15625 -93.628906 122.90625 -96.140625 L 155.328125 -195.296875 L 245.8125 -195.296875 L 139.125 82.1875 C 137.113281 88.21875 134.847656 93.117188 132.328125 96.890625 C 131.328125 98.648438 129.628906 100.910156 127.234375 103.671875 C 124.847656 106.441406 121.769531 109.585938 118 113.109375 C 113.726562 117.878906 105.3125 122.148438 92.75 125.921875 C 80.425781 129.691406 67.859375 131.578125 55.046875 131.578125 L 18.09375 131.578125 L 18.09375 76.15625 L 44.859375 76.15625 C 49.640625 76.15625 53.285156 74.960938 55.796875 72.578125 C 58.304688 70.191406 61.070312 64.472656 64.09375 55.421875 L 74.65625 26.390625 L -10.9375 -195.296875 L 79.171875 -195.296875 L 113.109375 -96.515625 C 113.859375 -94.003906 114.734375 -90.171875 115.734375 -85.015625 C 116.742188 -79.859375 117.628906 -75.773438 118.390625 -72.765625 Z M 118.390625 -72.765625 "/></g></g></g></g></svg>