<svg width="1600" height="1200" viewBox="0 0 1600 1200" fill="none" xmlns="http://www.w3.org/2000/svg">
  <defs>
    <linearGradient id="bg" x1="140" y1="120" x2="1460" y2="1080" gradientUnits="userSpaceOnUse">
      <stop stop-color="#EFF6FF"/>
      <stop offset="0.52" stop-color="#E8F1FF"/>
      <stop offset="1" stop-color="#F8FAFC"/>
    </linearGradient>
    <linearGradient id="panel" x1="0" y1="0" x2="1" y2="1">
      <stop stop-color="#0F172A"/>
      <stop offset="1" stop-color="#172554"/>
    </linearGradient>
    <linearGradient id="accent" x1="0" y1="0" x2="1" y2="1">
      <stop stop-color="#38BDF8"/>
      <stop offset="1" stop-color="#2563EB"/>
    </linearGradient>
    <linearGradient id="creditCard" x1="0" y1="0" x2="1" y2="1">
      <stop stop-color="#1D4ED8"/>
      <stop offset="1" stop-color="#38BDF8"/>
    </linearGradient>
    <filter id="shadow" x="0" y="0" width="1600" height="1200" filterUnits="userSpaceOnUse" color-interpolation-filters="sRGB">
      <feDropShadow dx="0" dy="34" stdDeviation="38" flood-color="#0F172A" flood-opacity="0.16"/>
    </filter>
    <filter id="soft" x="0" y="0" width="1600" height="1200" filterUnits="userSpaceOnUse" color-interpolation-filters="sRGB">
      <feDropShadow dx="0" dy="20" stdDeviation="26" flood-color="#1D4ED8" flood-opacity="0.18"/>
    </filter>
  </defs>

  <rect width="1600" height="1200" rx="48" fill="url(#bg)"/>
  <circle cx="1320" cy="190" r="190" fill="#DBEAFE" fill-opacity="0.75"/>
  <circle cx="250" cy="1010" r="210" fill="#E0F2FE" fill-opacity="0.75"/>

  <g filter="url(#shadow)">
    <rect x="96" y="92" width="1408" height="1016" rx="40" fill="white" fill-opacity="0.78"/>
  </g>

  <g>
    <text x="170" y="254" fill="#2563EB" font-family="Inter, Arial, sans-serif" font-size="40" font-weight="700">Brify</text>
    <text x="170" y="394" fill="#0F172A" font-family="Inter, Arial, sans-serif" font-size="120" font-weight="800">Credits</text>
    <text x="172" y="468" fill="#334155" font-family="Inter, Arial, sans-serif" font-size="42" font-weight="600">Generate Structure Maps</text>
    <text x="172" y="560" fill="#475569" font-family="Inter, Arial, sans-serif" font-size="28" font-weight="500">
      Buy credits to turn long content into clear Structure Maps in Brify.
    </text>
  </g>

  <g filter="url(#soft)">
    <rect x="170" y="678" width="338" height="214" rx="28" fill="url(#creditCard)"/>
    <circle cx="442" cy="742" r="18" fill="white" fill-opacity="0.85"/>
    <circle cx="408" cy="742" r="18" fill="white" fill-opacity="0.54"/>
    <text x="206" y="760" fill="white" font-family="Inter, Arial, sans-serif" font-size="34" font-weight="700">Brify Credits</text>
    <text x="206" y="818" fill="#DBEAFE" font-family="Inter, Arial, sans-serif" font-size="24" font-weight="600">Use credits inside Brify</text>
    <text x="206" y="860" fill="white" font-family="Inter, Arial, sans-serif" font-size="52" font-weight="800">100</text>
    <text x="318" y="860" fill="#E0F2FE" font-family="Inter, Arial, sans-serif" font-size="26" font-weight="700">credits</text>
  </g>

  <g filter="url(#shadow)">
    <rect x="790" y="188" width="594" height="744" rx="32" fill="url(#panel)"/>
    <rect x="826" y="232" width="522" height="54" rx="18" fill="white" fill-opacity="0.06"/>
    <circle cx="866" cy="259" r="8" fill="#38BDF8"/>
    <rect x="890" y="246" width="148" height="26" rx="10" fill="white" fill-opacity="0.08"/>

    <rect x="1034" y="344" width="122" height="84" rx="22" fill="url(#accent)"/>
    <text x="1068" y="395" fill="white" font-family="Inter, Arial, sans-serif" font-size="28" font-weight="700">Core</text>

    <path d="M1095 428V502" stroke="#7DD3FC" stroke-width="10" stroke-linecap="round"/>
    <path d="M1095 502H960" stroke="#7DD3FC" stroke-width="10" stroke-linecap="round"/>
    <path d="M1095 502H1230" stroke="#7DD3FC" stroke-width="10" stroke-linecap="round"/>

    <rect x="860" y="470" width="176" height="78" rx="22" fill="white"/>
    <text x="904" y="518" fill="#0F172A" font-family="Inter, Arial, sans-serif" font-size="26" font-weight="700">Ideas</text>

    <rect x="1154" y="470" width="176" height="78" rx="22" fill="white"/>
    <text x="1198" y="518" fill="#0F172A" font-family="Inter, Arial, sans-serif" font-size="26" font-weight="700">Compare</text>

    <path d="M948 548V628" stroke="#7DD3FC" stroke-width="8" stroke-linecap="round"/>
    <path d="M1242 548V628" stroke="#7DD3FC" stroke-width="8" stroke-linecap="round"/>

    <rect x="824" y="628" width="248" height="70" rx="20" fill="#1E293B"/>
    <text x="862" y="671" fill="#E2E8F0" font-family="Inter, Arial, sans-serif" font-size="24" font-weight="600">Annotations</text>

    <rect x="1118" y="628" width="196" height="70" rx="20" fill="#1E293B"/>
    <text x="1160" y="671" fill="#E2E8F0" font-family="Inter, Arial, sans-serif" font-size="24" font-weight="600">Terms</text>

    <rect x="828" y="768" width="520" height="118" rx="24" fill="white" fill-opacity="0.06"/>
    <rect x="860" y="804" width="196" height="20" rx="10" fill="white" fill-opacity="0.16"/>
    <rect x="860" y="840" width="412" height="16" rx="8" fill="white" fill-opacity="0.11"/>
  </g>

  <g>
    <rect x="170" y="938" width="167" height="46" rx="23" fill="#E0F2FE"/>
    <text x="204" y="968" fill="#0369A1" font-family="Inter, Arial, sans-serif" font-size="22" font-weight="700">AI terms</text>

    <rect x="353" y="938" width="213" height="46" rx="23" fill="#DBEAFE"/>
    <text x="390" y="968" fill="#1D4ED8" font-family="Inter, Arial, sans-serif" font-size="22" font-weight="700">Map compare</text>

    <rect x="582" y="938" width="197" height="46" rx="23" fill="#EDE9FE"/>
    <text x="620" y="968" fill="#6D28D9" font-family="Inter, Arial, sans-serif" font-size="22" font-weight="700">Annotations</text>
  </g>
</svg>
